# File created by Blade
# Date/Time:  Wed Jan 21 17:21:31 2015
# Frame Rate: 120.000 fps
#------------------------------------------------------
:FULLY-SPECIFIED
:DEGREES
776
root 18.616420 13.970206 -24.129798 -152.566555 18.787805 -197.599884
Spine -12.553969 22.928229 -28.516309
Head -29.352643 -11.154183 -0.366356
LeftShoulder -4.948779 -3.935919 4.161886
LeftArm -93.346818 48.695715 -141.820770
LeftForeArm -20.806075 -0.000000 61.175553
LeftHand -22.441136 -0.000000 -4.675307
LeftHandThumb1 -26.253704 0.000000 33.147579
RightShoulder -0.621286 -5.285065 11.778376
RightArm 25.444685 -15.838462 65.922765
RightForeArm -26.516205 -0.000000 12.892866
RightHand -7.206321 -0.000000 -2.719167
RightHandThumb1 -24.326973 -0.000000 -32.862282
LeftUpLeg -125.900919 -7.188097 -39.348516
LeftLeg 120.400094 -0.000000 -0.000000
LeftFoot -41.695286 26.951526 -6.200085
LeftToeBase 20.992042 -0.000000 -0.000000
RightUpLeg 14.859399 -10.623716 -20.197475
RightLeg 143.184381 -0.000000 -0.000000
RightFoot 47.246994 -17.875261 -2.836354
RightToeBase 27.676978 -0.000000 -0.000000
777
root 18.618704 13.975864 -24.123610 -152.577387 18.826835 -197.558981
Spine -12.664009 22.887464 -28.595295
Head -29.330151 -11.122985 -0.265047
LeftShoulder -4.899606 -3.901098 4.236900
LeftArm -93.349498 48.653984 -141.910757
LeftForeArm -20.806594 -0.000000 61.204623
LeftHand -22.502557 -0.000000 -4.627855
LeftHandThumb1 -26.253704 0.000000 33.147579
RightShoulder -0.765018 -5.379353 11.870494
RightArm 25.535960 -17.017730 65.381121
RightForeArm -25.352788 0.000000 13.206479
RightHand -7.455815 -0.000000 -2.768663
RightHandThumb1 -24.326973 -0.000000 -32.862282
LeftUpLeg -125.916195 -7.133581 -39.314383
LeftLeg 120.388857 -0.000000 -0.000000
LeftFoot -41.684104 26.945496 -6.230858
LeftToeBase 20.956207 -0.000000 -0.000000
RightUpLeg 14.827602 -10.612245 -20.172339
RightLeg 143.188905 -0.000000 -0.000000
RightFoot 47.259695 -17.843966 -2.846813
RightToeBase 27.696377 -0.000000 -0.000000
778
root 18.619213 13.981486 -24.116878 -152.583014 18.869344 -197.519238
Spine -12.779506 22.832537 -28.665649
Head -29.286215 -11.121713 -0.146171
LeftShoulder -4.854029 -3.864204 4.305230
LeftArm -93.335632 48.593489 -141.981137
LeftForeArm -20.813825 -0.000000 61.237807
LeftHand -22.504680 0.000000 -4.542021
LeftHandThumb1 -26.253704 0.000000 33.147579
RightShoulder -0.886139 -5.498883 11.930738
RightArm 25.679137 -18.254645 64.818269
RightForeArm -24.236399 -0.000000 13.466681
RightHand -7.588170 -0.000000 -3.053382
RightHandThumb1 -24.326973 -0.000000 -32.862282
LeftUpLeg -125.931547 -7.081695 -39.279582
LeftLeg 120.369603 -0.000000 -0.000000
LeftFoot -41.664224 26.976744 -6.196548
LeftToeBase 20.946881 -0.000000 -0.000000
RightUpLeg 14.787727 -10.591828 -20.152850
RightLeg 143.211277 -0.000000 -0.000000
RightFoot 47.250193 -17.847386 -2.857155
RightToeBase 27.666203 -0.000000 -0.000000
779
root 18.619226 13.987072 -24.110653 -152.585238 18.909738 -197.483222
Spine -12.895469 22.721767 -28.744387
Head -29.264026 -11.025710 0.001900
LeftShoulder -4.854485 -3.881123 4.393398
LeftArm -93.339234 48.460910 -142.048435
LeftForeArm -20.797590 -0.000000 61.276192
LeftHand -22.512619 -0.000000 -4.502518
LeftHandThumb1 -26.253704 0.000000 33.147579
RightShoulder -0.994248 -5.736248 12.026333
RightArm 25.968428 -19.579940 64.096742
RightForeArm -23.291795 0.000000 13.805760
RightHand -7.849018 0.000000 -3.113433
RightHandThumb1 -24.326973 -0.000000 -32.862282
LeftUpLeg -125.949390 -7.035949 -39.251105
LeftLeg 120.354958 -0.000000 -0.000000
LeftFoot -41.646107 26.971114 -6.201025
LeftToeBase 20.925856 -0.000000 -0.000000
RightUpLeg 14.746795 -10.575543 -20.138046
RightLeg 143.229488 -0.000000 -0.000000
RightFoot 47.255017 -17.865032 -2.859905
RightToeBase 27.670570 -0.000000 -0.000000
780
root 18.618026 13.992731 -24.105522 -152.609866 18.948133 -197.446428
Spine -12.971625 22.614841 -28.772378
Head -29.253639 -10.883484 0.075597
LeftShoulder -4.872024 -3.897871 4.422162
LeftArm -93.407317 48.358320 -142.140035
LeftForeArm -20.895905 -0.000000 61.349201
LeftHand -22.548633 -0.000000 -4.443458
LeftHandThumb1 -26.253704 0.000000 33.147579
RightShoulder -1.046689 -5.862441 12.080416
RightArm 26.139518 -20.528626 63.579110
RightForeArm -22.526320 -0.000000 14.045231
RightHand -7.841118 -0.000000 -2.904069
RightHandThumb1 -24.326973 -0.000000 -32.862282
LeftUpLeg -125.946420 -6.977311 -39.228062
LeftLeg 120.339840 -0.000000 -0.000000
LeftFoot -41.620110 26.980648 -6.182681
LeftToeBase 20.893745 -0.000000 -0.000000
RightUpLeg 14.727651 -10.537191 -20.125529
RightLeg 143.246983 -0.000000 -0.000000
RightFoot 47.286553 -17.810966 -2.866251
RightToeBase 27.626901 -0.000000 -0.000000
781
root 18.617145 13.996806 -24.100998 -152.622139 18.980914 -197.399086
Spine -13.066129 22.544839 -28.781007
Head -29.193032 -10.865979 0.107867
LeftShoulder -4.869072 -3.790479 4.420796
LeftArm -93.469041 48.388331 -142.254259
LeftForeArm -21.062023 -0.000000 61.413555
LeftHand -22.494647 0.000000 -4.416310
LeftHandThumb1 -26.253704 0.000000 33.147579
RightShoulder -1.062355 -5.901156 12.073665
RightArm 26.123913 -20.857820 63.544277
RightForeArm -22.795216 0.000000 14.070941
RightHand -7.719387 -0.000000 -2.646747
RightHandThumb1 -24.326973 -0.000000 -32.862282
LeftUpLeg -125.960004 -6.926353 -39.194023
LeftLeg 120.339108 -0.000000 -0.000000
LeftFoot -41.600805 26.959083 -6.194164
LeftToeBase 20.881659 -0.000000 -0.000000
RightUpLeg 14.709095 -10.530812 -20.113740
RightLeg 143.263929 -0.000000 -0.000000
RightFoot 47.300651 -17.844278 -2.904992
RightToeBase 27.644004 -0.000000 -0.000000
782
root 18.615495 13.999889 -24.097236 -152.633986 19.000285 -197.344980
Spine -13.160227 22.452056 -28.769507
Head -29.134813 -10.833890 0.149425
LeftShoulder -4.874963 -3.712025 4.430505
LeftArm -93.527332 48.375276 -142.356428
LeftForeArm -21.259569 -0.000000 61.495499
LeftHand -22.485491 0.000000 -4.337741
LeftHandThumb1 -26.253704 0.000000 33.147579
RightShoulder -1.090917 -5.957588 12.073674
RightArm 26.138648 -21.315747 63.392873
RightForeArm -22.800290 0.000000 14.212179
RightHand -7.640345 -0.000000 -2.317949
RightHandThumb1 -24.326973 -0.000000 -32.862282
LeftUpLeg -125.967104 -6.886461 -39.153627
LeftLeg 120.329730 -0.000000 -0.000000
LeftFoot -41.606570 26.992487 -6.210484
LeftToeBase 20.867467 -0.000000 -0.000000
RightUpLeg 14.692150 -10.512558 -20.086716
RightLeg 143.283165 -0.000000 -0.000000
RightFoot 47.329397 -17.831842 -2.934186
RightToeBase 27.625936 -0.000000 -0.000000
783
root 18.614596 14.002504 -24.093739 -152.652085 19.019444 -197.288124
Spine -13.249672 22.375778 -28.757458
Head -29.071395 -10.787144 0.172784
LeftShoulder -4.861412 -3.650834 4.443795
LeftArm -93.504110 48.312732 -142.348574
LeftForeArm -21.359057 -0.000000 61.577365
LeftHand -22.498867 -0.000000 -4.323053
LeftHandThumb1 -26.253704 0.000000 33.147579
RightShoulder -1.100121 -5.976170 12.047849
RightArm 26.104070 -21.825109 63.266512
RightForeArm -22.984842 0.000000 14.344614
RightHand -7.539387 -0.000000 -2.089465
RightHandThumb1 -24.326973 -0.000000 -32.862282
LeftUpLeg -125.967162 -6.839740 -39.120607
LeftLeg 120.325227 -0.000000 -0.000000
LeftFoot -41.618521 27.019249 -6.209058
LeftToeBase 20.939784 -0.000000 -0.000000
RightUpLeg 14.686155 -10.500363 -20.055713
RightLeg 143.311555 -0.000000 -0.000000
RightFoot 47.305887 -17.826777 -2.950235
RightToeBase 27.699993 -0.000000 -0.000000
784
root 18.610555 14.004877 -24.090984 -152.671487 19.034487 -197.250245
Spine -13.343537 22.270895 -28.741300
Head -28.959721 -10.756696 0.188140
LeftShoulder -4.856032 -3.593858 4.448801
LeftArm -93.501994 48.240345 -142.378033
LeftForeArm -21.437084 -0.000000 61.642291
LeftHand -22.556942 -0.000000 -4.332855
LeftHandThumb1 -26.253704 0.000000 33.147579
RightShoulder -1.104453 -6.125039 11.999915
RightArm 26.251165 -22.430450 62.997929
RightForeArm -23.013503 -0.000000 14.422615
RightHand -7.318560 0.000000 -1.858551
RightHandThumb1 -24.326973 -0.000000 -32.862282
LeftUpLeg -125.955595 -6.811904 -39.096475
LeftLeg 120.318439 -0.000000 -0.000000
LeftFoot -41.618564 27.035083 -6.227038
LeftToeBase 20.912520 -0.000000 -0.000000
RightUpLeg 14.684033 -10.480346 -20.050330
RightLeg 143.335001 -0.000000 -0.000000
RightFoot 47.299599 -17.825039 -2.937967
RightToeBase 27.722642 -0.000000 -0.000000
